<?xml version="1.0" encoding="UTF-8" standalone="no"?>
<!DOCTYPE svg PUBLIC "-//W3C//DTD SVG 1.1//EN" "http://www.w3.org/Graphics/SVG/1.1/DTD/svg11.dtd">
<svg version="1.1" xmlns="http://www.w3.org/2000/svg" xmlns:xlink="http://www.w3.org/1999/xlink" preserveAspectRatio="xMidYMid meet" viewBox="0 0 640 640" width="640" height="640"><defs><path d="M391.22 256.25C391.22 316.79 339.23 365.95 275.2 365.95C211.17 365.95 159.19 316.79 159.19 256.25C159.19 195.71 211.17 146.55 275.2 146.55C339.23 146.55 391.22 195.71 391.22 256.25Z" id="b1lfJFwYCE"></path><path d="M519.86 233.28C519.86 289.38 472 334.93 413.04 334.93C354.08 334.93 306.22 289.38 306.22 233.28C306.22 177.17 354.08 131.62 413.04 131.62C472 131.62 519.86 177.17 519.86 233.28Z" id="h19kuS2Keu"></path><path d="M240.74 312.53C240.74 348.35 209.09 377.43 170.1 377.43C131.11 377.43 99.46 348.35 99.46 312.53C99.46 276.72 131.11 247.64 170.1 247.64C209.09 247.64 240.74 276.72 240.74 312.53Z" id="cZLl1hq8f"></path><path d="M398.11 164.36C398.11 198.27 370.57 225.81 336.66 225.81C302.74 225.81 275.2 198.27 275.2 164.36C275.2 130.44 302.74 102.91 336.66 102.91C370.57 102.91 398.11 130.44 398.11 164.36Z" id="cBIolquij"></path><path d="M458.99 354.46C458.99 386.16 431.58 411.89 397.82 411.89C364.06 411.89 336.66 386.16 336.66 354.46C336.66 322.76 364.06 297.03 397.82 297.03C431.58 297.03 458.99 322.76 458.99 354.46Z" id="afgYrtZm2"></path><path d="M371.11 373.41C371.11 404.79 342.03 430.27 306.22 430.27C270.4 430.27 241.32 404.79 241.32 373.41C241.32 342.03 270.4 316.55 306.22 316.55C342.03 316.55 371.11 342.03 371.11 373.41Z" id="b2JY3bvwIP"></path><path d="M508.38 333.21C508.38 351.28 492.17 365.95 472.2 365.95C452.23 365.95 436.01 351.28 436.01 333.21C436.01 315.14 452.23 300.47 472.2 300.47C492.17 300.47 508.38 315.14 508.38 333.21Z" id="b3Q8pQ8Cof"></path><path d="M584.19 201.11C584.19 233.13 557.94 259.12 525.61 259.12C493.28 259.12 467.03 233.13 467.03 201.11C467.03 169.1 493.28 143.11 525.61 143.11C557.94 143.11 584.19 169.1 584.19 201.11Z" id="cDmTyRknJ"></path></defs><g><g><g><g><use xlink:href="#b1lfJFwYCE" opacity="1" fill="#36c055" fill-opacity="1"></use></g><g><use xlink:href="#h19kuS2Keu" opacity="1" fill="#33b34f" fill-opacity="1"></use></g><g><use xlink:href="#cZLl1hq8f" opacity="1" fill="#3cc559" fill-opacity="1"></use></g><g><use xlink:href="#cBIolquij" opacity="1" fill="#2e9b45" fill-opacity="1"></use></g><g><use xlink:href="#afgYrtZm2" opacity="1" fill="#34d858" fill-opacity="1"></use></g><g><use xlink:href="#b2JY3bvwIP" opacity="1" fill="#32b64f" fill-opacity="1"></use></g><g><use xlink:href="#b3Q8pQ8Cof" opacity="1" fill="#2faa49" fill-opacity="1"></use></g><g><use xlink:href="#cDmTyRknJ" opacity="1" fill="#28903f" fill-opacity="1"></use></g></g></g></g></svg>